<svg width="124" height="24" viewBox="0 0 124 24" fill="none" xmlns="http://www.w3.org/2000/svg">
<path d="M41.8883 10.7774H44.4522V16.5931C43.7018 17.1906 42.8264 17.6492 41.8258 17.9688C40.8253 18.2884 39.7969 18.4483 38.7408 18.4483C37.2539 18.4483 35.9129 18.1286 34.7178 17.4894C33.5227 16.8363 32.5846 15.9399 31.9037 14.8004C31.2228 13.6609 30.8823 12.3755 30.8823 10.9441C30.8823 9.51281 31.2228 8.22738 31.9037 7.08787C32.5846 5.94836 33.5227 5.05898 34.7178 4.41974C35.9268 3.76661 37.2817 3.44004 38.7825 3.44004C40.0054 3.44004 41.1171 3.64154 42.1176 4.04454C43.1182 4.44754 43.9589 5.03814 44.6398 5.81634L42.9306 7.48392C41.8189 6.3722 40.4779 5.81634 38.9075 5.81634C37.8792 5.81634 36.962 6.03174 36.156 6.46253C35.3639 6.89332 34.7386 7.49782 34.28 8.27602C33.8353 9.05422 33.613 9.9436 33.613 10.9441C33.613 11.9169 33.8353 12.7924 34.28 13.5706C34.7386 14.3488 35.3639 14.9602 36.156 15.4049C36.962 15.8496 37.8723 16.072 38.8867 16.072C40.0262 16.072 41.0268 15.8218 41.8883 15.3215V10.7774Z" fill="white"/>
<path d="M47.7762 2.77301H50.3818V18.2398H47.7762V2.77301Z" fill="white"/>
<path d="M58.8043 18.3857C57.6787 18.3857 56.6643 18.1425 55.761 17.6562C54.8577 17.1698 54.149 16.4958 53.6348 15.6342C53.1346 14.7587 52.8844 13.7721 52.8844 12.6743C52.8844 11.5764 53.1346 10.5967 53.6348 9.73515C54.149 8.87357 54.8577 8.19959 55.761 7.71321C56.6643 7.22684 57.6787 6.98365 58.8043 6.98365C59.9438 6.98365 60.9652 7.22684 61.8685 7.71321C62.7718 8.19959 63.4736 8.87357 63.9738 9.73515C64.488 10.5967 64.7451 11.5764 64.7451 12.6743C64.7451 13.7721 64.488 14.7587 63.9738 15.6342C63.4736 16.4958 62.7718 17.1698 61.8685 17.6562C60.9652 18.1425 59.9438 18.3857 58.8043 18.3857ZM58.8043 16.1553C59.7632 16.1553 60.5553 15.8357 61.1806 15.1965C61.806 14.5572 62.1186 13.7165 62.1186 12.6743C62.1186 11.632 61.806 10.7913 61.1806 10.152C60.5553 9.51281 59.7632 9.19319 58.8043 9.19319C57.8455 9.19319 57.0534 9.51281 56.428 10.152C55.8166 10.7913 55.5109 11.632 55.5109 12.6743C55.5109 13.7165 55.8166 14.5572 56.428 15.1965C57.0534 15.8357 57.8455 16.1553 58.8043 16.1553Z" fill="white"/>
<path d="M73.4067 6.98365C74.4907 6.98365 75.4565 7.21989 76.3041 7.69237C77.1657 8.16485 77.8397 8.83188 78.3261 9.69346C78.8125 10.555 79.0557 11.5486 79.0557 12.6743C79.0557 13.7999 78.8125 14.8004 78.3261 15.6759C77.8397 16.5375 77.1657 17.2045 76.3041 17.677C75.4565 18.1495 74.4907 18.3857 73.4067 18.3857C72.6424 18.3857 71.9406 18.2537 71.3014 17.9897C70.6761 17.7256 70.148 17.3296 69.7172 16.8015V18.2398H67.2367V2.77301H69.8423V8.46362C70.287 7.97725 70.8081 7.60899 71.4056 7.35885C72.0171 7.10872 72.6841 6.98365 73.4067 6.98365ZM73.1149 16.1553C74.0738 16.1553 74.8589 15.8357 75.4704 15.1965C76.0957 14.5572 76.4084 13.7165 76.4084 12.6743C76.4084 11.632 76.0957 10.7913 75.4704 10.152C74.8589 9.51281 74.0738 9.19319 73.1149 9.19319C72.4896 9.19319 71.9267 9.3391 71.4265 9.63093C70.9262 9.90886 70.5301 10.3119 70.2383 10.8399C69.9465 11.368 69.8006 11.9794 69.8006 12.6743C69.8006 13.3691 69.9465 13.9805 70.2383 14.5086C70.5301 15.0367 70.9262 15.4466 71.4265 15.7384C71.9267 16.0164 72.4896 16.1553 73.1149 16.1553Z" fill="white"/>
<path d="M85.6366 6.98365C87.2763 6.98365 88.527 7.3797 89.3886 8.1718C90.2641 8.95 90.7018 10.1312 90.7018 11.7154V18.2398H88.2421V16.8849C87.9225 17.3713 87.4639 17.7465 86.8664 18.0105C86.2827 18.2607 85.574 18.3857 84.7402 18.3857C83.9064 18.3857 83.1769 18.2468 82.5515 17.9688C81.9262 17.677 81.4398 17.2809 81.0924 16.7807C80.7589 16.2665 80.5921 15.6898 80.5921 15.0506C80.5921 14.05 80.9604 13.251 81.6969 12.6534C82.4473 12.042 83.6216 11.7362 85.2197 11.7362H88.0962V11.5695C88.0962 10.7913 87.86 10.1937 87.3875 9.77684C86.9289 9.35995 86.2411 9.1515 85.3239 9.1515C84.6985 9.1515 84.0801 9.24877 83.4687 9.44333C82.8712 9.63788 82.3639 9.90886 81.947 10.2563L80.9256 8.3594C81.5093 7.91471 82.2111 7.57425 83.031 7.33801C83.8509 7.10177 84.7194 6.98365 85.6366 6.98365ZM85.2822 16.4888C85.9353 16.4888 86.512 16.3429 87.0123 16.0511C87.5265 15.7454 87.8878 15.3146 88.0962 14.7587V13.4664H85.4073C83.9064 13.4664 83.156 13.9597 83.156 14.9463C83.156 15.4188 83.3436 15.794 83.7188 16.072C84.094 16.3499 84.6152 16.4888 85.2822 16.4888Z" fill="white"/>
<path d="M94.0458 2.77301H96.6514V18.2398H94.0458V2.77301Z" fill="white"/>
<path d="M105.908 9.23488C106.867 9.23488 107.728 9.42248 108.492 9.79769C109.257 10.159 109.854 10.6801 110.285 11.361C110.716 12.042 110.931 12.8271 110.931 13.7165C110.931 14.6615 110.695 15.4952 110.223 16.2179C109.75 16.9266 109.111 17.4755 108.305 17.8646C107.499 18.2537 106.596 18.4483 105.595 18.4483C103.594 18.4483 102.038 17.8229 100.926 16.5722C99.828 15.3215 99.2791 13.5289 99.2791 11.1943C99.2791 9.5545 99.5779 8.1579 100.175 7.00449C100.773 5.83719 101.607 4.95476 102.677 4.35721C103.761 3.74576 105.011 3.44004 106.429 3.44004C107.179 3.44004 107.881 3.52342 108.534 3.69018C109.201 3.84304 109.778 4.07233 110.264 4.37806L109.264 6.42084C108.541 5.94836 107.617 5.71212 106.491 5.71212C105.088 5.71212 103.99 6.14291 103.198 7.00449C102.406 7.86607 102.01 9.10981 102.01 10.7357V10.7565C102.441 10.2563 102.989 9.88107 103.657 9.63093C104.324 9.3669 105.074 9.23488 105.908 9.23488ZM105.449 16.3221C106.297 16.3221 106.985 16.0997 107.513 15.6551C108.041 15.1965 108.305 14.592 108.305 13.8416C108.305 13.0773 108.041 12.4728 107.513 12.0281C106.985 11.5834 106.276 11.361 105.387 11.361C104.511 11.361 103.795 11.5973 103.24 12.0698C102.698 12.5422 102.427 13.1398 102.427 13.8624C102.427 14.5711 102.691 15.1617 103.219 15.6342C103.761 16.0928 104.504 16.3221 105.449 16.3221Z" fill="white"/>
<path d="M118.976 9.23488C119.935 9.23488 120.797 9.42248 121.561 9.79769C122.325 10.159 122.923 10.6801 123.354 11.361C123.785 12.042 124 12.8271 124 13.7165C124 14.6615 123.764 15.4952 123.291 16.2179C122.819 16.9266 122.18 17.4755 121.374 17.8646C120.568 18.2537 119.664 18.4483 118.664 18.4483C116.663 18.4483 115.106 17.8229 113.995 16.5722C112.897 15.3215 112.348 13.5289 112.348 11.1943C112.348 9.5545 112.647 8.1579 113.244 7.00449C113.842 5.83719 114.675 4.95476 115.745 4.35721C116.829 3.74576 118.08 3.44004 119.498 3.44004C120.248 3.44004 120.95 3.52342 121.603 3.69018C122.27 3.84304 122.847 4.07233 123.333 4.37806L122.332 6.42084C121.61 5.94836 120.686 5.71212 119.56 5.71212C118.157 5.71212 117.059 6.14291 116.267 7.00449C115.474 7.86607 115.078 9.10981 115.078 10.7357V10.7565C115.509 10.2563 116.058 9.88107 116.725 9.63093C117.392 9.3669 118.143 9.23488 118.976 9.23488ZM118.518 16.3221C119.366 16.3221 120.053 16.0997 120.581 15.6551C121.11 15.1965 121.374 14.592 121.374 13.8416C121.374 13.0773 121.11 12.4728 120.581 12.0281C120.053 11.5834 119.345 11.361 118.455 11.361C117.58 11.361 116.864 11.5973 116.308 12.0698C115.766 12.5422 115.495 13.1398 115.495 13.8624C115.495 14.5711 115.759 15.1617 116.287 15.6342C116.829 16.0928 117.573 16.3221 118.518 16.3221Z" fill="white"/>
<circle cx="11.7252" cy="11.7252" r="11.7252" fill="white"/>
<path d="M19.8992 11.5083C19.7645 9.94941 18.4457 8.72528 16.8367 8.72528C15.7999 8.72528 14.8834 9.23465 14.3277 10.0131C14.0001 10.4731 13.7948 11.0236 13.7658 11.6254C13.7637 11.6726 13.7616 11.7219 13.7616 11.7692C13.7616 12.8351 12.8907 13.6978 11.8166 13.6978C11.8146 13.6978 11.8146 13.6978 11.8146 13.6978H11.8125C10.7405 13.6978 9.86753 12.8351 9.86753 11.7692C9.86753 11.7219 9.86545 11.6726 9.86338 11.6254C9.83642 11.0236 9.63115 10.4731 9.30145 10.0131C8.75197 9.23465 7.83547 8.72528 6.79871 8.72528C5.18965 8.72528 3.87089 9.94941 3.73611 11.5083C3.73611 11.5083 3.72574 11.6336 3.72781 11.6644C3.74855 11.954 3.98908 12.1861 4.28767 12.1861C4.60077 12.1861 4.8413 11.9314 4.85166 11.6274C4.88899 11.1283 5.11915 10.6826 5.4675 10.3622C5.81793 10.0418 6.28447 9.84466 6.79663 9.84466C7.82096 9.84466 8.66073 10.6313 8.73538 11.6274L8.74368 11.7835C8.74575 12.4346 8.9531 13.0344 9.3056 13.5273C9.86131 14.3057 10.7799 14.8151 11.8146 14.8151C11.8166 14.8151 11.8166 14.8151 11.8166 14.8151H11.8187C12.8534 14.8151 13.772 14.3057 14.3277 13.5273C14.6802 13.0344 14.8875 12.4346 14.8896 11.7835L14.8979 11.6274C14.9726 10.6292 15.8123 9.84466 16.8367 9.84466C17.3488 9.84466 17.8174 10.0418 18.1658 10.3622C18.5141 10.6826 18.7443 11.1283 18.7816 11.6274C18.7941 11.9314 19.0346 12.1861 19.3456 12.1861C19.6442 12.1861 19.8847 11.9561 19.9055 11.6644C19.9096 11.6336 19.8992 11.5083 19.8992 11.5083Z" fill="#2746C7" stroke="#2746C7" stroke-width="0.5"/>
</svg>
